<svg xmlns="http://www.w3.org/2000/svg" viewBox="0 0 100 100" width="100" height="100">
  <!-- 身体 -->
  <ellipse cx="50" cy="55" rx="30" ry="25" fill="#F9F9F9" stroke="#333" stroke-width="1.5"/>
  
  <!-- 头部 -->
  <circle cx="30" cy="40" r="15" fill="#F9F9F9" stroke="#333" stroke-width="1.5"/>
  
  <!-- 耳朵 -->
  <ellipse cx="22" cy="32" rx="6" ry="8" fill="#EAEAEA" stroke="#333" stroke-width="1" transform="rotate(-15, 22, 32)"/>
  <ellipse cx="38" cy="32" rx="6" ry="8" fill="#EAEAEA" stroke="#333" stroke-width="1" transform="rotate(15, 38, 32)"/>
  
  <!-- 眼睛 -->
  <circle cx="25" cy="38" r="2.5" fill="#333"/>
  <circle cx="35" cy="38" r="2.5" fill="#333"/>
  
  <!-- 可爱眼神高光 -->
  <circle cx="26" cy="37" r="1" fill="#FFF"/>
  <circle cx="36" cy="37" r="1" fill="#FFF"/>
  
  <!-- 鼻子和嘴 -->
  <ellipse cx="30" cy="43" rx="3" ry="2" fill="#FFAABB"/>
  <path d="M27 45 Q30 47 33 45" stroke="#333" stroke-width="1" fill="none"/>
  
  <!-- 腿 -->
  <rect x="35" y="75" width="4" height="15" rx="2" fill="#F9F9F9" stroke="#333" stroke-width="1"/>
  <rect x="45" y="75" width="4" height="15" rx="2" fill="#F9F9F9" stroke="#333" stroke-width="1"/>
  <rect x="55" y="75" width="4" height="15" rx="2" fill="#F9F9F9" stroke="#333" stroke-width="1"/>
  <rect x="65" y="75" width="4" height="15" rx="2" fill="#F9F9F9" stroke="#333" stroke-width="1"/>
  
  <!-- 蓬松毛发效果 -->
  <path d="M20 55 Q15 45 25 35" stroke="#333" stroke-width="1" fill="none"/>
  <path d="M25 60 Q20 55 30 45" stroke="#333" stroke-width="1" fill="none"/>
  <path d="M70 45 Q80 50 75 60" stroke="#333" stroke-width="1" fill="none"/>
  <path d="M65 40 Q75 45 70 55" stroke="#333" stroke-width="1" fill="none"/>
  
  <!-- 尾巴 -->
  <path d="M75 55 Q85 50 85 60" stroke="#333" stroke-width="1.5" fill="#F9F9F9"/>
</svg> 